<svg xmlns="http://www.w3.org/2000/svg" viewBox="0 0 200 283" width="200" height="283">
  <rect width="200" height="283" fill="#ffffff"/>
  <rect x="0" y="0" width="200" height="70" fill="#3d3d3d"/>
  <circle cx="34" cy="35" r="20" fill="#5a5a5a"/>
  <circle cx="34" cy="29" r="7" fill="#4a4a4a"/>
  <ellipse cx="34" cy="47" rx="12" ry="8" fill="#4a4a4a"/>
  <rect x="62" y="16" width="100" height="7" rx="3" fill="#ffffff" opacity="0.95"/>
  <rect x="62" y="27" width="70" height="4" rx="2" fill="#c5c5c5" opacity="0.8"/>
  <rect x="62" y="35" width="120" height="2" rx="1" fill="#9a9a9a" opacity="0.6"/>
  <rect x="62" y="41" width="95" height="2" rx="1" fill="#9a9a9a" opacity="0.5"/>
  <rect x="18" y="80" width="50" height="3" rx="1.5" fill="#3d3d3d" opacity="0.7"/>
  <rect x="18" y="89" width="164" height="2.5" rx="1.25" fill="#888" opacity="0.6"/>
  <rect x="18" y="95" width="140" height="2.5" rx="1.25" fill="#888" opacity="0.5"/>
  <rect x="18" y="101" width="155" height="2.5" rx="1.25" fill="#888" opacity="0.5"/>
  <rect x="18" y="115" width="55" height="3" rx="1.5" fill="#3d3d3d" opacity="0.7"/>
  <rect x="18" y="124" width="140" height="3" rx="1.5" fill="#3d3d3d" opacity="0.8"/>
  <rect x="18" y="131" width="90" height="2.5" rx="1.25" fill="#666" opacity="0.7"/>
  <rect x="18" y="137" width="164" height="2" rx="1" fill="#888" opacity="0.5"/>
  <rect x="18" y="142" width="130" height="2" rx="1" fill="#888" opacity="0.4"/>
  <rect x="18" y="152" width="120" height="3" rx="1.5" fill="#3d3d3d" opacity="0.8"/>
  <rect x="18" y="159" width="85" height="2.5" rx="1.25" fill="#666" opacity="0.7"/>
  <rect x="18" y="165" width="164" height="2" rx="1" fill="#888" opacity="0.5"/>
  <rect x="18" y="175" width="48" height="3" rx="1.5" fill="#3d3d3d" opacity="0.7"/>
  <rect x="18" y="184" width="164" height="2" rx="1" fill="#3d3d3d" opacity="0.25"/>
  <rect x="18" y="184" width="130" height="2" rx="1" fill="#3d3d3d" opacity="0.6"/>
  <rect x="18" y="190" width="164" height="2" rx="1" fill="#3d3d3d" opacity="0.25"/>
  <rect x="18" y="190" width="100" height="2" rx="1" fill="#3d3d3d" opacity="0.6"/>
  <rect x="18" y="196" width="164" height="2" rx="1" fill="#3d3d3d" opacity="0.25"/>
  <rect x="18" y="196" width="115" height="2" rx="1" fill="#3d3d3d" opacity="0.6"/>
</svg>
