<svg xmlns="http://www.w3.org/2000/svg" viewBox="0 0 200 283" width="200" height="283">
  <rect width="200" height="283" fill="#f8f8f8"/>
  <rect x="0" y="0" width="72" height="283" fill="#1a2744"/>
  <rect x="0" y="0" width="72" height="4" fill="#d4a843"/>
  <circle cx="36" cy="38" r="20" fill="#253354"/>
  <circle cx="36" cy="31" r="8" fill="#1e2d4a"/>
  <ellipse cx="36" cy="50" rx="13" ry="8" fill="#1e2d4a"/>
  <rect x="8" y="66" width="56" height="5" rx="2" fill="#ffffff" opacity="0.9"/>
  <rect x="14" y="75" width="44" height="3" rx="1.5" fill="#d4a843" opacity="0.85"/>
  <rect x="8" y="90" width="24" height="3" rx="1.5" fill="#d4a843" opacity="0.7"/>
  <rect x="8" y="97" width="56" height="2" rx="1" fill="#7d90b5" opacity="0.7"/>
  <rect x="8" y="103" width="50" height="2" rx="1" fill="#7d90b5" opacity="0.6"/>
  <rect x="8" y="109" width="54" height="2" rx="1" fill="#7d90b5" opacity="0.6"/>
  <rect x="8" y="123" width="22" height="3" rx="1.5" fill="#d4a843" opacity="0.7"/>
  <rect x="8" y="132" width="56" height="2" rx="1" fill="#2c3f6b" opacity="0.5"/>
  <rect x="8" y="132" width="44" height="2" rx="1" fill="#ffffff" opacity="0.5"/>
  <rect x="8" y="138" width="56" height="2" rx="1" fill="#2c3f6b" opacity="0.5"/>
  <rect x="8" y="138" width="28" height="2" rx="1" fill="#ffffff" opacity="0.5"/>
  <rect x="8" y="144" width="56" height="2" rx="1" fill="#2c3f6b" opacity="0.5"/>
  <rect x="8" y="144" width="38" height="2" rx="1" fill="#ffffff" opacity="0.5"/>
  <rect x="82" y="14" width="106" height="7" rx="3" fill="#1a2744" opacity="0.9"/>
  <rect x="82" y="25" width="70" height="4" rx="2" fill="#4a6090" opacity="0.7"/>
  <rect x="82" y="43" width="60" height="3.5" rx="1.75" fill="#1a2744" opacity="0.6"/>
  <rect x="82" y="43" width="3" height="3.5" rx="1.75" fill="#d4a843"/>
  <rect x="92" y="43" width="50" height="3.5" rx="1.75" fill="#1a2744" opacity="0.6"/>
  <rect x="82" y="52" width="95" height="3" rx="1.5" fill="#1a2744" opacity="0.8"/>
  <rect x="82" y="59" width="65" height="2.5" rx="1.25" fill="#4a6090" opacity="0.7"/>
  <rect x="82" y="65" width="106" height="2" rx="1" fill="#888" opacity="0.5"/>
  <rect x="82" y="71" width="90" height="2" rx="1" fill="#888" opacity="0.4"/>
  <rect x="82" y="82" width="80" height="3" rx="1.5" fill="#1a2744" opacity="0.8"/>
  <rect x="82" y="89" width="60" height="2.5" rx="1.25" fill="#4a6090" opacity="0.7"/>
  <rect x="82" y="95" width="106" height="2" rx="1" fill="#888" opacity="0.5"/>
  <rect x="82" y="107" width="55" height="3.5" rx="1.75" fill="#1a2744" opacity="0.6"/>
  <rect x="82" y="107" width="3" height="3.5" rx="1.75" fill="#d4a843"/>
  <rect x="92" y="107" width="45" height="3.5" rx="1.75" fill="#1a2744" opacity="0.6"/>
  <rect x="82" y="116" width="95" height="3" rx="1.5" fill="#1a2744" opacity="0.75"/>
  <rect x="82" y="123" width="65" height="2.5" rx="1.25" fill="#4a6090" opacity="0.65"/>
  <rect x="82" y="130" width="106" height="2" rx="1" fill="#888" opacity="0.5"/>
</svg>
