<svg xmlns="http://www.w3.org/2000/svg" viewBox="0 0 200 283" width="200" height="283">
  <rect width="200" height="283" fill="#f9fafb"/>
  <rect x="0" y="0" width="8" height="283" fill="#fbbf24"/>
  <rect x="0" y="0" width="200" height="55" fill="#ffffff" opacity="0.5"/>
  <circle cx="32" cy="28" r="18" fill="#fde68a"/>
  <circle cx="32" cy="22" r="7" fill="#f59e0b"/>
  <ellipse cx="32" cy="38" rx="11" ry="7" fill="#f59e0b"/>
  <rect x="56" y="14" width="120" height="7" rx="3" fill="#111827" opacity="0.85"/>
  <rect x="56" y="25" width="85" height="3.5" rx="1.75" fill="#6b7280" opacity="0.7"/>
  <rect x="56" y="33" width="125" height="2" rx="1" fill="#9ca3af" opacity="0.6"/>
  <rect x="56" y="38" width="100" height="2" rx="1" fill="#9ca3af" opacity="0.5"/>
  <rect x="16" y="66" width="60" height="4" rx="2" fill="#111827" opacity="0.7"/>
  <rect x="16" y="66" width="4" height="4" fill="#fbbf24"/>
  <rect x="16" y="75" width="95" height="3" rx="1.5" fill="#111827" opacity="0.8"/>
  <rect x="16" y="82" width="68" height="2.5" rx="1.25" fill="#6b7280" opacity="0.7"/>
  <rect x="16" y="88" width="170" height="2" rx="1" fill="#9ca3af" opacity="0.5"/>
  <rect x="16" y="93" width="145" height="2" rx="1" fill="#9ca3af" opacity="0.4"/>
  <rect x="16" y="103" width="88" height="3" rx="1.5" fill="#111827" opacity="0.8"/>
  <rect x="16" y="110" width="60" height="2.5" rx="1.25" fill="#6b7280" opacity="0.7"/>
  <rect x="16" y="116" width="170" height="2" rx="1" fill="#9ca3af" opacity="0.5"/>
  <rect x="16" y="121" width="130" height="2" rx="1" fill="#9ca3af" opacity="0.4"/>
  <rect x="16" y="133" width="58" height="4" rx="2" fill="#111827" opacity="0.7"/>
  <rect x="16" y="133" width="4" height="4" fill="#fbbf24"/>
  <rect x="16" y="142" width="90" height="3" rx="1.5" fill="#111827" opacity="0.75"/>
  <rect x="16" y="149" width="62" height="2.5" rx="1.25" fill="#6b7280" opacity="0.65"/>
  <rect x="16" y="160" width="50" height="4" rx="2" fill="#111827" opacity="0.7"/>
  <rect x="16" y="160" width="4" height="4" fill="#fbbf24"/>
  <rect x="16" y="170" width="170" height="2" rx="1" fill="#d1d5db" opacity="0.8"/>
  <rect x="16" y="170" width="130" height="2" rx="1" fill="#6b7280" opacity="0.6"/>
  <rect x="16" y="176" width="170" height="2" rx="1" fill="#d1d5db" opacity="0.8"/>
  <rect x="16" y="176" width="100" height="2" rx="1" fill="#6b7280" opacity="0.6"/>
  <rect x="16" y="182" width="170" height="2" rx="1" fill="#d1d5db" opacity="0.8"/>
  <rect x="16" y="182" width="145" height="2" rx="1" fill="#6b7280" opacity="0.6"/>
</svg>
