<svg xmlns="http://www.w3.org/2000/svg" viewBox="0 0 200 283" width="200" height="283">
  <rect width="200" height="283" fill="#ffffff"/>
  <rect x="0" y="0" width="200" height="62" fill="#111111"/>
  <rect x="0" y="60" width="200" height="2" fill="#d1d5db"/>
  <rect x="18" y="12" width="130" height="8" rx="3" fill="#ffffff" opacity="0.95"/>
  <rect x="18" y="24" width="90" height="4" rx="2" fill="#9ca3af" opacity="0.8"/>
  <rect x="18" y="32" width="120" height="2.5" rx="1.25" fill="#6b7280" opacity="0.6"/>
  <rect x="18" y="38" width="100" height="2.5" rx="1.25" fill="#6b7280" opacity="0.5"/>
  <rect x="18" y="74" width="50" height="3.5" rx="1.75" fill="#111111" opacity="0.8"/>
  <rect x="18" y="82" width="105" height="3" rx="1.5" fill="#111111" opacity="0.85"/>
  <rect x="18" y="89" width="72" height="2.5" rx="1.25" fill="#4b5563" opacity="0.7"/>
  <rect x="18" y="95" width="164" height="2" rx="1" fill="#9ca3af" opacity="0.5"/>
  <rect x="18" y="100" width="140" height="2" rx="1" fill="#9ca3af" opacity="0.4"/>
  <rect x="18" y="110" width="88" height="3" rx="1.5" fill="#111111" opacity="0.85"/>
  <rect x="18" y="117" width="60" height="2.5" rx="1.25" fill="#4b5563" opacity="0.7"/>
  <rect x="18" y="123" width="164" height="2" rx="1" fill="#9ca3af" opacity="0.5"/>
  <rect x="18" y="128" width="120" height="2" rx="1" fill="#9ca3af" opacity="0.4"/>
  <rect x="18" y="140" width="48" height="3.5" rx="1.75" fill="#111111" opacity="0.8"/>
  <rect x="18" y="148" width="95" height="3" rx="1.5" fill="#111111" opacity="0.8"/>
  <rect x="18" y="155" width="65" height="2.5" rx="1.25" fill="#4b5563" opacity="0.65"/>
  <rect x="18" y="166" width="45" height="3.5" rx="1.75" fill="#111111" opacity="0.8"/>
  <rect x="18" y="175" width="164" height="3" rx="1.5" fill="#e5e7eb"/>
  <rect x="18" y="175" width="130" height="3" rx="1.5" fill="#374151" opacity="0.6"/>
  <rect x="18" y="182" width="164" height="3" rx="1.5" fill="#e5e7eb"/>
  <rect x="18" y="182" width="100" height="3" rx="1.5" fill="#374151" opacity="0.6"/>
  <rect x="18" y="189" width="164" height="3" rx="1.5" fill="#e5e7eb"/>
  <rect x="18" y="189" width="145" height="3" rx="1.5" fill="#374151" opacity="0.6"/>
  <rect x="18" y="196" width="164" height="3" rx="1.5" fill="#e5e7eb"/>
  <rect x="18" y="196" width="115" height="3" rx="1.5" fill="#374151" opacity="0.6"/>
</svg>
