<svg xmlns="http://www.w3.org/2000/svg" viewBox="0 0 200 283" width="200" height="283">
  <rect width="200" height="283" fill="#faf7f4"/>
  <rect x="0" y="0" width="200" height="78" fill="#f5f0eb"/>
  <rect x="0" y="76" width="200" height="2" fill="#d6cec6"/>
  <circle cx="30" cy="36" r="20" fill="#e8e0d8"/>
  <circle cx="30" cy="29" r="8" fill="#d6cec6"/>
  <ellipse cx="30" cy="49" rx="13" ry="8" fill="#d6cec6"/>
  <rect x="58" y="14" width="120" height="7" rx="3" fill="#3d3530" opacity="0.85"/>
  <rect x="58" y="25" width="85" height="4" rx="2" fill="#7a6f66" opacity="0.75"/>
  <rect x="58" y="33" width="115" height="2.5" rx="1.25" fill="#a59d95" opacity="0.6"/>
  <rect x="58" y="39" width="95" height="2.5" rx="1.25" fill="#a59d95" opacity="0.5"/>
  <rect x="18" y="89" width="58" height="4" rx="2" fill="#3d3530" opacity="0.65"/>
  <rect x="18" y="99" width="98" height="3" rx="1.5" fill="#3d3530" opacity="0.8"/>
  <rect x="18" y="106" width="68" height="2.5" rx="1.25" fill="#7a6f66" opacity="0.7"/>
  <rect x="18" y="112" width="164" height="2" rx="1" fill="#a59d95" opacity="0.5"/>
  <rect x="18" y="117" width="135" height="2" rx="1" fill="#a59d95" opacity="0.4"/>
  <rect x="18" y="127" width="85" height="3" rx="1.5" fill="#3d3530" opacity="0.8"/>
  <rect x="18" y="134" width="60" height="2.5" rx="1.25" fill="#7a6f66" opacity="0.7"/>
  <rect x="18" y="140" width="164" height="2" rx="1" fill="#a59d95" opacity="0.5"/>
  <rect x="18" y="155" width="52" height="4" rx="2" fill="#3d3530" opacity="0.65"/>
  <rect x="18" y="165" width="95" height="3" rx="1.5" fill="#3d3530" opacity="0.75"/>
  <rect x="18" y="172" width="65" height="2.5" rx="1.25" fill="#7a6f66" opacity="0.65"/>
  <rect x="18" y="182" width="80" height="3" rx="1.5" fill="#3d3530" opacity="0.75"/>
  <rect x="18" y="189" width="55" height="2.5" rx="1.25" fill="#7a6f66" opacity="0.65"/>
  <rect x="18" y="200" width="50" height="4" rx="2" fill="#3d3530" opacity="0.65"/>
  <rect x="18" y="210" width="164" height="2.5" rx="1.25" fill="#d6cec6" opacity="0.8"/>
  <rect x="18" y="210" width="125" height="2.5" rx="1.25" fill="#7a6f66" opacity="0.6"/>
  <rect x="18" y="216" width="164" height="2.5" rx="1.25" fill="#d6cec6" opacity="0.8"/>
  <rect x="18" y="216" width="98" height="2.5" rx="1.25" fill="#7a6f66" opacity="0.6"/>
  <rect x="18" y="222" width="164" height="2.5" rx="1.25" fill="#d6cec6" opacity="0.8"/>
  <rect x="18" y="222" width="140" height="2.5" rx="1.25" fill="#7a6f66" opacity="0.6"/>
</svg>
