<svg xmlns="http://www.w3.org/2000/svg" viewBox="0 0 200 283" width="200" height="283">
  <rect width="200" height="283" fill="#ffffff"/>
  <rect x="0" y="0" width="200" height="72" fill="#07a5c3"/>
  <polygon points="0,72 200,72 200,55" fill="#0596b2"/>
  <circle cx="32" cy="35" r="20" fill="#0596b2"/>
  <circle cx="32" cy="28" r="8" fill="#07a5c3"/>
  <ellipse cx="32" cy="48" rx="13" ry="8" fill="#07a5c3"/>
  <rect x="0" y="68" width="200" height="5" fill="#f14902" opacity="0.85"/>
  <rect x="60" y="14" width="120" height="7" rx="3" fill="#ffffff" opacity="0.95"/>
  <rect x="60" y="25" width="85" height="4" rx="2" fill="#b2ecf5" opacity="0.9"/>
  <rect x="60" y="33" width="110" height="2.5" rx="1.25" fill="#b2ecf5" opacity="0.65"/>
  <rect x="60" y="39" width="88" height="2.5" rx="1.25" fill="#b2ecf5" opacity="0.55"/>
  <rect x="18" y="84" width="62" height="4" rx="2" fill="#07a5c3" opacity="0.8"/>
  <rect x="18" y="93" width="105" height="3" rx="1.5" fill="#111827" opacity="0.8"/>
  <rect x="18" y="100" width="72" height="2.5" rx="1.25" fill="#4b5563" opacity="0.7"/>
  <rect x="18" y="106" width="164" height="2" rx="1" fill="#9ca3af" opacity="0.5"/>
  <rect x="18" y="111" width="140" height="2" rx="1" fill="#9ca3af" opacity="0.4"/>
  <rect x="18" y="121" width="90" height="3" rx="1.5" fill="#111827" opacity="0.8"/>
  <rect x="18" y="128" width="62" height="2.5" rx="1.25" fill="#4b5563" opacity="0.7"/>
  <rect x="18" y="134" width="164" height="2" rx="1" fill="#9ca3af" opacity="0.5"/>
  <rect x="18" y="146" width="58" height="4" rx="2" fill="#07a5c3" opacity="0.8"/>
  <rect x="18" y="155" width="88" height="3" rx="1.5" fill="#111827" opacity="0.75"/>
  <rect x="18" y="162" width="60" height="2.5" rx="1.25" fill="#4b5563" opacity="0.65"/>
  <rect x="18" y="173" width="78" height="3" rx="1.5" fill="#111827" opacity="0.75"/>
  <rect x="18" y="180" width="52" height="2.5" rx="1.25" fill="#4b5563" opacity="0.65"/>
  <rect x="18" y="191" width="55" height="4" rx="2" fill="#07a5c3" opacity="0.8"/>
  <circle cx="24" cy="203" r="3" fill="#f14902"/>
  <rect x="32" y="201" width="110" height="2.5" rx="1.25" fill="#6b7280" opacity="0.7"/>
  <circle cx="24" cy="212" r="3" fill="#f14902"/>
  <rect x="32" y="210" width="90" height="2.5" rx="1.25" fill="#6b7280" opacity="0.7"/>
  <circle cx="24" cy="221" r="3" fill="#f14902"/>
  <rect x="32" y="219" width="105" height="2.5" rx="1.25" fill="#6b7280" opacity="0.7"/>
</svg>
