<svg xmlns="http://www.w3.org/2000/svg" viewBox="0 0 200 283" width="200" height="283">
  <rect width="200" height="283" fill="#ffffff"/>
  <rect x="0" y="0" width="200" height="80" fill="#1e3a8a"/>
  <rect x="0" y="76" width="200" height="4" fill="#60a5fa"/>
  <circle cx="40" cy="40" r="24" fill="#ffffff" opacity="0.12"/>
  <circle cx="40" cy="33" r="9" fill="#ffffff" opacity="0.3"/>
  <ellipse cx="40" cy="54" rx="14" ry="9" fill="#ffffff" opacity="0.3"/>
  <rect x="70" y="16" width="115" height="7" rx="3" fill="#ffffff" opacity="0.95"/>
  <rect x="70" y="27" width="80" height="4" rx="2" fill="#93c5fd" opacity="0.85"/>
  <rect x="70" y="35" width="105" height="2.5" rx="1.25" fill="#bfdbfe" opacity="0.7"/>
  <rect x="70" y="41" width="85" height="2.5" rx="1.25" fill="#bfdbfe" opacity="0.6"/>
  <rect x="18" y="93" width="55" height="4" rx="2" fill="#1e3a8a" opacity="0.7"/>
  <rect x="18" y="93" width="3" height="4" rx="2" fill="#1e3a8a"/>
  <rect x="18" y="101" width="100" height="3" rx="1.5" fill="#1e3a8a" opacity="0.85"/>
  <rect x="18" y="108" width="70" height="2.5" rx="1.25" fill="#4a6090" opacity="0.7"/>
  <rect x="18" y="114" width="164" height="2" rx="1" fill="#888" opacity="0.5"/>
  <rect x="18" y="119" width="140" height="2" rx="1" fill="#888" opacity="0.4"/>
  <rect x="18" y="129" width="90" height="3" rx="1.5" fill="#1e3a8a" opacity="0.85"/>
  <rect x="18" y="136" width="65" height="2.5" rx="1.25" fill="#4a6090" opacity="0.7"/>
  <rect x="18" y="142" width="164" height="2" rx="1" fill="#888" opacity="0.5"/>
  <rect x="18" y="147" width="120" height="2" rx="1" fill="#888" opacity="0.4"/>
  <rect x="18" y="160" width="50" height="4" rx="2" fill="#1e3a8a" opacity="0.7"/>
  <rect x="18" y="170" width="95" height="3" rx="1.5" fill="#1e3a8a" opacity="0.8"/>
  <rect x="18" y="177" width="68" height="2.5" rx="1.25" fill="#4a6090" opacity="0.65"/>
  <rect x="18" y="188" width="80" height="3" rx="1.5" fill="#1e3a8a" opacity="0.8"/>
  <rect x="18" y="195" width="55" height="2.5" rx="1.25" fill="#4a6090" opacity="0.65"/>
  <rect x="18" y="208" width="50" height="4" rx="2" fill="#1e3a8a" opacity="0.7"/>
  <rect x="18" y="218" width="164" height="2" rx="1" fill="#1e3a8a" opacity="0.15"/>
  <rect x="18" y="218" width="120" height="2" rx="1" fill="#1e3a8a" opacity="0.6"/>
  <rect x="18" y="224" width="164" height="2" rx="1" fill="#1e3a8a" opacity="0.15"/>
  <rect x="18" y="224" width="95" height="2" rx="1" fill="#1e3a8a" opacity="0.6"/>
  <rect x="18" y="230" width="164" height="2" rx="1" fill="#1e3a8a" opacity="0.15"/>
  <rect x="18" y="230" width="140" height="2" rx="1" fill="#1e3a8a" opacity="0.6"/>
</svg>
